<?xml version="1.0" encoding="utf-8"?>
<!-- Generator: Adobe Illustrator 24.1.3, SVG Export Plug-In . SVG Version: 6.00 Build 0)  -->
<svg version="1.1" id="Layer_1" xmlns="http://www.w3.org/2000/svg" xmlns:xlink="http://www.w3.org/1999/xlink" x="0px" y="0px"
	 viewBox="0 0 1280 1024" style="enable-background:new 0 0 1280 1024;" xml:space="preserve">
<style type="text/css">
	.st0{opacity:0.71;fill:url(#SVGID_1_);stroke:#707070;stroke-width:0.25;stroke-miterlimit:10;enable-background:new    ;}
	.st1{opacity:0.71;fill:url(#SVGID_2_);enable-background:new    ;}
	.st2{opacity:0.4;fill:url(#Ellipse_1_1_);enable-background:new    ;}
	.st3{opacity:0.4;fill:url(#Ellipse_2_1_);enable-background:new    ;}
	.st4{opacity:0.4;fill:url(#Ellipse_3_1_);enable-background:new    ;}
	.st5{opacity:0.4;fill:url(#Ellipse_4_1_);enable-background:new    ;}
	.st6{opacity:0.4;fill:url(#Ellipse_5_1_);enable-background:new    ;}
	.st7{opacity:0.4;fill:url(#Ellipse_6_1_);enable-background:new    ;}
	.st8{opacity:0.4;fill:url(#Ellipse_7_1_);enable-background:new    ;}
	.st9{opacity:0.4;fill:url(#Ellipse_8_1_);enable-background:new    ;}
	.st10{fill:#E0E0E0;}
	.st11{fill:#F55F44;}
	.st12{opacity:0.05;enable-background:new    ;}
	.st13{fill:url(#SVGID_3_);}
	.st14{fill:url(#SVGID_4_);}
	.st15{fill:#F5F5F5;}
	.st16{opacity:0.5;}
	.st17{fill:#47E6B1;}
	.st18{opacity:0.5;fill:#4D8AF0;enable-background:new    ;}
	.st19{opacity:0.5;fill:#F55F44;enable-background:new    ;}
	.st20{fill:#12C091;}
	.st21{opacity:0.15;enable-background:new    ;}
	.st22{fill:#16CD9C;}
</style>
<radialGradient id="SVGID_1_" cx="633.8062" cy="558.204" r="20.777" gradientUnits="userSpaceOnUse">
	<stop  offset="0" style="stop-color:#FFFFFF"/>
	<stop  offset="1" style="stop-color:#F6C8F4"/>
</radialGradient>
<path class="st0" d="M621.43,531.56c2.05,24.39,24.76,53.3,24.76,53.3S642.27,550.44,621.43,531.56z"/>
<radialGradient id="SVGID_2_" cx="655.8968" cy="560.9564" r="95.5676" gradientUnits="userSpaceOnUse">
	<stop  offset="0" style="stop-color:#FFFFFF"/>
	<stop  offset="1" style="stop-color:#F6C8F4"/>
</radialGradient>
<path class="st1" d="M740.33,626.63c7.8-3.34,20.88-5.13,25.7-11.72s5.49-3.88,4.38-21.15c-1.11-17.27-32.87-23.4-32.87-23.4
	s20.05-23.32,12.26-38.36s-32.31,3.27-31.2-1.74s0.52-9.67-10.89-11.44c-11.41-1.77-24.42,4.63-43.36,15.21s-2.03-30.68-18.17-40.53
	c-16.14-9.86-17.27,1.11-23.95,26.74c-0.93,3.56-1.13,7.38-0.8,11.32c20.84,18.89,24.76,53.3,24.76,53.3s-22.71-28.91-24.76-53.3
	c-9.62-8.72-22.85-14.14-40.97-11.32c-39.13,6.08-43.6,37.28-37.04,58.17c3.42,10.91,12.13,19.36,15.32,21.49
	c4.79,3.2,27.51-0.96,32.35,2.6c6.75,4.96-4.56,17.49-4.56,17.49s-11.73,5.33-16.9,12.01h149.86
	C726.08,627.8,737.17,627.99,740.33,626.63z"/>
<g id="Group_14" transform="translate(23.5 -199)">
	
		<radialGradient id="Ellipse_1_1_" cx="-10.2237" cy="1217.5238" r="0.5" gradientTransform="matrix(16 0 0 -18 735 22566)" gradientUnits="userSpaceOnUse">
		<stop  offset="0" style="stop-color:#FFFFFF"/>
		<stop  offset="1" style="stop-color:#F6C8F4"/>
	</radialGradient>
	<ellipse id="Ellipse_1" class="st2" cx="571.42" cy="650.57" rx="8" ry="9"/>
	
		<radialGradient id="Ellipse_2_1_" cx="-6.2982" cy="1216.3285" r="0.5" gradientTransform="matrix(12 0 0 -15 733 18884)" gradientUnits="userSpaceOnUse">
		<stop  offset="0" style="stop-color:#FFFFFF"/>
		<stop  offset="1" style="stop-color:#F6C8F4"/>
	</radialGradient>
	<ellipse id="Ellipse_2" class="st3" cx="657.42" cy="639.07" rx="6" ry="7.5"/>
	
		<radialGradient id="Ellipse_3_1_" cx="-3.1579" cy="1214.5356" r="0.5" gradientTransform="matrix(10 0 0 -12 670 15235)" gradientUnits="userSpaceOnUse">
		<stop  offset="0" style="stop-color:#FFFFFF"/>
		<stop  offset="1" style="stop-color:#F6C8F4"/>
	</radialGradient>
	<ellipse id="Ellipse_3" class="st4" cx="638.42" cy="660.57" rx="5" ry="6"/>
	
		<radialGradient id="Ellipse_4_1_" cx="-3.1579" cy="1214.5356" r="0.5" gradientTransform="matrix(10 0 0 -12 618 15120)" gradientUnits="userSpaceOnUse">
		<stop  offset="0" style="stop-color:#FFFFFF"/>
		<stop  offset="1" style="stop-color:#F6C8F4"/>
	</radialGradient>
	<ellipse id="Ellipse_4" class="st5" cx="586.42" cy="545.57" rx="5" ry="6"/>
	
		<radialGradient id="Ellipse_5_1_" cx="-3.1579" cy="1215.2252" r="0.5" gradientTransform="matrix(10 0 0 -13 655 16318)" gradientUnits="userSpaceOnUse">
		<stop  offset="0" style="stop-color:#FFFFFF"/>
		<stop  offset="1" style="stop-color:#F6C8F4"/>
	</radialGradient>
	<ellipse id="Ellipse_5" class="st6" cx="623.42" cy="520.07" rx="5" ry="6.5"/>
	
		<radialGradient id="Ellipse_6_1_" cx="-12.5789" cy="1217.1722" r="0.5" gradientTransform="matrix(20 0 0 -17 900 21247)" gradientUnits="userSpaceOnUse">
		<stop  offset="0" style="stop-color:#FFFFFF"/>
		<stop  offset="1" style="stop-color:#F6C8F4"/>
	</radialGradient>
	<ellipse id="Ellipse_6" class="st7" cx="648.42" cy="555.07" rx="10" ry="8.5"/>
	
		<radialGradient id="Ellipse_7_1_" cx="-6.2982" cy="1213.7207" r="0.5" gradientTransform="matrix(12 0 0 -11 771 14027)" gradientUnits="userSpaceOnUse">
		<stop  offset="0" style="stop-color:#FFFFFF"/>
		<stop  offset="1" style="stop-color:#F6C8F4"/>
	</radialGradient>
	<ellipse id="Ellipse_7" class="st8" cx="695.42" cy="676.07" rx="6" ry="5.5"/>
	
		<radialGradient id="Ellipse_8_1_" cx="9.4036" cy="1213.7207" r="0.5" gradientTransform="matrix(6 0 0 -11 549 13973)" gradientUnits="userSpaceOnUse">
		<stop  offset="0" style="stop-color:#FFFFFF"/>
		<stop  offset="1" style="stop-color:#F6C8F4"/>
	</radialGradient>
	<ellipse id="Ellipse_8" class="st9" cx="605.42" cy="622.07" rx="3" ry="5.5"/>
</g>
<ellipse id="Ellipse_9" transform="matrix(0.4445 -0.8958 0.8958 0.4445 -223.0091 813.6255)" class="st10" cx="544.48" cy="586.61" rx="11.27" ry="1.69"/>
<polygon class="st11" points="610.92,628.88 605.7,624.57 599.57,632 608.34,632 "/>
<polygon class="st11" points="599.57,632 599.16,632.5 607.92,632.5 608.34,632 "/>
<polygon class="st12" points="611.49,627.44 604.09,625.7 602.61,632 610.42,632 "/>
<polygon class="st12" points="602.61,632 602.49,632.5 610.3,632.5 610.42,632 "/>
<polygon class="st11" points="611.49,627.44 604.91,625.9 603.48,632 610.42,632 "/>
<polygon class="st11" points="603.48,632 603.36,632.5 610.3,632.5 610.42,632 "/>
<linearGradient id="SVGID_3_" gradientUnits="userSpaceOnUse" x1="636.4582" y1="629.958" x2="636.4582" y2="630.0335">
	<stop  offset="0" style="stop-color:#808080;stop-opacity:0.251"/>
	<stop  offset="0.535" style="stop-color:#808080;stop-opacity:0.122"/>
	<stop  offset="1" style="stop-color:#808080;stop-opacity:0.102"/>
</linearGradient>
<polygon class="st13" points="609.33,632 610.34,632.5 663.59,632.5 662.58,632 "/>
<linearGradient id="SVGID_4_" gradientUnits="userSpaceOnUse" x1="600.8981" y1="347.3509" x2="600.8981" y2="355.8053">
	<stop  offset="0" style="stop-color:#808080;stop-opacity:0.251"/>
	<stop  offset="0.535" style="stop-color:#808080;stop-opacity:0.122"/>
	<stop  offset="1" style="stop-color:#808080;stop-opacity:0.102"/>
</linearGradient>
<polygon class="st14" points="549.74,576.01 539.22,597.21 609.33,632 662.58,632 "/>
<path class="st15" d="M549.49,576.52c0,0-2.24,8.32-10.02,20.19c-1.03-0.51,35.14,17.45,71.09,35.29h50.75L549.49,576.52z"/>
<path class="st15" d="M610.56,632c0.34,0.17,0.67,0.33,1.01,0.5h50.75l-1.01-0.5H610.56z"/>
<polygon class="st12" points="622.68,612.84 611.07,607.07 601.05,627.27 610.59,632 613.17,632 "/>
<polygon class="st12" points="610.59,632 611.6,632.5 612.93,632.5 613.17,632 "/>
<polygon class="st12" points="612.66,633.03 612.93,632.5 611.6,632.5 "/>
<polygon class="st11" points="612.16,632.78 612.3,632.5 611.6,632.5 "/>
<polygon class="st11" points="610.59,632 611.6,632.5 612.3,632.5 612.55,632 "/>
<polygon class="st11" points="622.18,612.59 611.58,607.33 601.56,627.52 610.59,632 612.55,632 "/>
<rect id="Rectangle_7" x="600.34" y="615.98" transform="matrix(0.4445 -0.8958 0.8958 0.4445 -215.5528 892.275)" class="st12" width="22.54" height="7.89"/>
<rect id="Rectangle_8" x="600.35" y="616.55" transform="matrix(0.4445 -0.8958 0.8958 0.4445 -215.5532 892.2755)" class="st11" width="22.54" height="6.76"/>
<g id="Group_2" transform="translate(317.98 392.552)" class="st16">
	<rect id="Rectangle_11" x="469.17" y="188.57" class="st17" width="0.96" height="5.46"/>
	<rect id="Rectangle_12" x="466.92" y="190.82" class="st17" width="5.46" height="0.96"/>
</g>
<g id="Group_3" transform="translate(80.971 324.789)" class="st16">
	<rect id="Rectangle_13" x="469.17" y="188.57" class="st17" width="0.96" height="5.46"/>
	<rect id="Rectangle_14" x="466.92" y="190.82" class="st17" width="5.46" height="0.96"/>
</g>
<g id="Group_4" transform="translate(289.077 316.439)" class="st16">
	<rect id="Rectangle_15" x="469.17" y="188.57" class="st17" width="0.96" height="5.46"/>
	<rect id="Rectangle_16" x="466.92" y="190.82" class="st17" width="5.46" height="0.96"/>
</g>
<path id="Path_3" class="st18" d="M538.87,575.81c-0.55-0.24-0.83-0.85-0.66-1.43c0.01-0.04,0.02-0.09,0.03-0.13l0,0
	c0.02-0.33-0.23-0.61-0.56-0.63c-0.2-0.01-0.39,0.08-0.51,0.23l0,0c-0.03,0.04-0.05,0.07-0.07,0.12c-0.24,0.55-0.85,0.83-1.43,0.66
	c-0.04-0.01-0.09-0.02-0.13-0.03l0,0c-0.33-0.02-0.61,0.23-0.63,0.56c-0.01,0.2,0.08,0.39,0.23,0.51l0,0
	c0.04,0.03,0.07,0.05,0.12,0.07c0.55,0.24,0.83,0.85,0.66,1.43c-0.01,0.04-0.02,0.09-0.03,0.13l0,0c-0.02,0.33,0.23,0.61,0.56,0.63
	c0.2,0.01,0.39-0.08,0.51-0.23l0,0c0.03-0.04,0.05-0.07,0.07-0.12c0.24-0.55,0.85-0.83,1.43-0.66c0.04,0.01,0.09,0.02,0.13,0.03l0,0
	c0.33,0.02,0.61-0.23,0.63-0.56c0.01-0.2-0.08-0.39-0.23-0.51l0,0C538.95,575.85,538.91,575.83,538.87,575.81z"/>
<path id="Path_4" class="st18" d="M594.1,512.54c-0.55-0.24-0.83-0.85-0.66-1.43c0.01-0.04,0.02-0.09,0.03-0.13l0,0
	c0.02-0.33-0.23-0.61-0.56-0.63c-0.2-0.01-0.39,0.08-0.51,0.23l0,0c-0.03,0.04-0.05,0.07-0.07,0.12c-0.24,0.55-0.85,0.83-1.43,0.66
	c-0.04-0.01-0.09-0.02-0.13-0.03l0,0c-0.33-0.02-0.61,0.23-0.63,0.56c-0.01,0.2,0.08,0.39,0.23,0.51l0,0
	c0.04,0.03,0.07,0.05,0.12,0.07c0.55,0.24,0.83,0.85,0.66,1.43c-0.01,0.04-0.02,0.09-0.03,0.13l0,0c-0.02,0.33,0.23,0.61,0.56,0.63
	c0.2,0.01,0.39-0.08,0.51-0.23l0,0c0.03-0.04,0.05-0.07,0.07-0.12c0.24-0.55,0.85-0.83,1.43-0.66c0.04,0.01,0.09,0.02,0.13,0.03l0,0
	c0.33,0.02,0.61-0.23,0.63-0.56c0.01-0.2-0.08-0.39-0.23-0.51l0,0C594.18,512.58,594.15,512.56,594.1,512.54z"/>
<circle id="Ellipse_15" class="st19" cx="667.04" cy="496.34" r="1.93"/>
<path class="st20" d="M713.77,620.79l-10.6-15.42l-32.44-22.16l-70.02,26.01l-7.7,11.56c0,0,2.01,9.28,41.69,11.21h32.07
	C710.06,630.06,713.77,620.79,713.77,620.79z"/>
<path class="st20" d="M634.71,632c5.23,0.26,11.1,0.39,17.72,0.35c5.21-0.03,9.98-0.15,14.35-0.35H634.71z"/>
<path class="st21" d="M713.77,620.79l-10.6-15.42l-32.44-22.16l-70.02,26.01l-7.7,11.56c0,0,2.01,9.28,41.69,11.21h32.07
	C710.06,630.06,713.77,620.79,713.77,620.79z"/>
<path class="st21" d="M634.71,632c5.23,0.26,11.1,0.39,17.72,0.35c5.21-0.03,9.98-0.15,14.35-0.35H634.71z"/>
<path id="Path_8" class="st20" d="M764.67,566.35l-101.16,44.64l-123.32-44.64l113.05-51.38l55.49,25.59l1.99,0.92L764.67,566.35z"
	/>
<path id="Path_9" class="st21" d="M764.67,566.35l-101.16,44.64l-123.32-44.64l113.05-51.38l55.49,25.59l1.99,0.92L764.67,566.35z"
	/>
<path id="Path_10" class="st15" d="M712.8,577.05l-1.93,0.12l-2.16-36.61l1.99,0.92L712.8,577.05z"/>
<path id="Path_11" class="st22" d="M602.01,566.19l-8.99,54.6c0,0,64.55-20.88,120.75,0l-8.35-57.81
	C705.42,562.98,629.95,553.67,602.01,566.19z"/>
<ellipse id="Ellipse_16" class="st15" cx="712.64" cy="581.77" rx="9.31" ry="6.42"/>
</svg>
